<?xml version="1.0" encoding="UTF-8"?> <svg xmlns="http://www.w3.org/2000/svg" xmlns:xlink="http://www.w3.org/1999/xlink" width="50px" height="22px" viewBox="0 0 50 22" version="1.1"><title>Artboard</title><g id="Artboard" stroke="none" stroke-width="1" fill="none" fill-rule="evenodd"><rect fill="#FFFFFF" x="0" y="0" width="50" height="22"></rect><g id="american-express-logo" transform="translate(-3.000000, -7.061000)" fill="#212121" fill-rule="nonzero"><path d="M24.25,16.366 L19.966,16.366 L19.966,10.999 L24.25,10.999 L24.25,12.117 L21.248,12.117 L21.248,13.084 L24.179,13.084 L24.179,14.184 L21.248,14.184 L21.248,15.256 L24.25,15.256 L24.25,16.366 Z M14.703,16.366 L12.84,12.16 L12.84,16.367 L10.23,16.367 L9.737,15.17 L7.067,15.17 L6.569,16.367 L5.176,16.367 L7.473,11 L9.377,11 L11.56,16.082 L11.56,11 L13.654,11 L15.333,14.641 L16.874,11 L19.012,11 L19.012,16.367 L17.697,16.367 L17.692,12.164 L15.832,16.367 L14.703,16.366 L14.703,16.366 Z M9.273,14.051 L8.396,11.912 L7.524,14.051 L9.273,14.051 Z M30.022,22.005 C30.022,23.496 28.91,23.804 27.789,23.804 L26.189,23.804 L26.189,25.604 L23.696,25.604 L22.116,23.827 L20.474,25.604 L15.393,25.604 L15.393,20.2369974 L20.551,20.2369974 L22.131,21.995 L23.763,20.2369974 L27.861,20.2369974 C28.879,20.236 30.022,20.519 30.022,22.005 Z M21.291,22.91 L19.888,21.347 L16.673,21.347 L16.673,22.323 L19.488,22.323 L19.488,23.419 L16.673,23.419 L16.673,24.487 L19.825,24.487 L21.291,22.91 Z M24.911,20.812 L22.941,22.928 L24.911,25.116 L24.911,20.812 Z M28.645,22.005 C28.645,21.535 28.325,21.346 27.861,21.346 L26.189,21.346 L26.189,22.713003 L27.845,22.713003 C28.339,22.714 28.645,22.469 28.645,22.005 Z M26.424,16.366 L25.14,16.366 L25.14,10.999 L28.09,10.999 C28.745,10.999 29.228,11.016 29.644,11.256 C30.048,11.496 30.292,11.846 30.292,12.445 C30.292,13.3 29.722,13.743 29.388,13.875 C29.669,13.982 29.909,14.171 30.023,14.327 C30.205,14.594 30.236,14.832 30.236,15.311 L30.236,16.366 L28.942,16.366 L28.936,15.689 C28.936,15.366 28.967,14.902 28.734,14.644 C28.547,14.456 28.261,14.415 27.799,14.415 L26.424,14.415 L26.424,16.366 Z M26.422,13.309 L27.981,13.309 C28.23,13.309 28.438,13.306 28.616,13.199 C28.781,13.112 28.88,12.923 28.88,12.689 C28.88,12.459 28.777,12.293 28.611,12.215 C28.459,12.129 28.225,12.118 28.003,12.118 L26.423,12.118 L26.422,13.309 L26.422,13.309 Z M32.344,11 L31.035,11 L31.035,16.367 L32.344,16.367 L32.344,11 Z M33.66,15.773 C33.208,15.317 32.972,14.699 32.972,13.724 C32.972,12.928 33.113,12.2 33.663,11.625 C34.076,11.197 34.727,11 35.611,11 L36.852,11 L36.852,12.15 L35.637,12.15 C35.166,12.15 34.903,12.22 34.649,12.468 C34.43,12.694 34.281,13.12 34.281,13.684 C34.281,14.258 34.393,14.673 34.634,14.943 C34.831,15.156 35.193,15.22 35.528,15.22 L36.103,15.22 L37.915,11 L39.836,11 L42.008,16.076 L42.008,11 L43.961,11 L46.217,14.738 L46.217,11 L47.529,11 L47.529,16.367 L45.713,16.367 L43.279,12.339 L43.279,16.367 L40.668,16.367 L40.168,15.17 L37.504,15.17 L37.022,16.367 L35.52,16.367 C34.895,16.366 34.106,16.228 33.66,15.773 Z M37.963,14.051 L39.733,14.051 L38.844,11.912 L37.963,14.051 Z M35.27,13.102 C35.258,13.119 35.168,13.312 35.168,13.684 C35.168,14.052 35.227,14.229 35.27,14.309 C35.315,14.321 35.398,14.335 35.522,14.335 L36.078,13.036 L35.64,13.036 C35.338,13.035 35.307,13.067 35.27,13.102 Z M56.48,1.454 L56.48,35.149 C56.48,35.952 55.83,36.603 55.026,36.603 L1.454,36.603 C0.65,36.603 0,35.951 0,35.148 L0,1.454 C0,0.651 0.65,0 1.454,0 L55.026,0 C55.83,0 56.48,0.651 56.48,1.454 Z M14.703,17.253 L15.83,17.253 C16.182,17.253 16.498,17.046 16.64,16.725 L16.81,16.345 L16.81,16.367 C16.81,16.856 17.206,17.252 17.696,17.252 L19.011,17.252 C19.191,17.252 19.348,17.184 19.489,17.093 C19.629,17.184 19.786,17.252 19.967,17.252 L24.251,17.252 C24.417,17.252 24.564,17.194 24.695,17.115 C24.829,17.194 24.974,17.252 25.14,17.252 L26.424,17.252 C26.913,17.252 27.31,16.855 27.31,16.366 L27.31,15.3 L27.799,15.3 C27.91,15.3 27.989,15.303 28.048,15.307 C28.054,15.398 28.052,15.506 28.052,15.578 L28.05,15.696 L28.055,16.373 C28.059,16.859 28.455,17.252 28.942,17.252 L30.236,17.252 C30.382,17.252 30.513,17.208 30.634,17.145 C30.757,17.208 30.89,17.252 31.035,17.252 L32.345,17.252 C32.774,17.252 33.114,16.942 33.197,16.538 C33.926,17.149 34.948,17.252 35.519,17.252 L37.021,17.252 C37.38,17.252 37.706,17.032 37.839,16.697 L38.101,16.054 L39.579,16.054 L39.85,16.706 C39.99,17.036 40.311,17.251 40.668,17.251 L43.279,17.251 C43.767,17.251 44.165,16.854 44.165,16.365 L44.165,15.518 L44.952,16.823 C45.113,17.089 45.4,17.251 45.713,17.251 L47.529,17.251 C48.017,17.251 48.415,16.854 48.415,16.365 L48.415,10.998 C48.415,10.509 48.019,10.112 47.529,10.112 L46.217,10.112 C45.727,10.112 45.329,10.509 45.329,10.998 L45.329,11.552 L44.719,10.541 C44.559,10.275 44.272,10.113 43.961,10.113 L42.008,10.113 C41.518,10.113 41.121,10.51 41.121,10.999 L41.121,11.752 L40.65,10.65 C40.509,10.325 40.19,10.113 39.836,10.113 L37.915,10.113 C37.719,10.113 37.534,10.177 37.385,10.289 C37.238,10.178 37.053,10.113 36.856,10.113 L35.615,10.113 C34.563,10.113 33.781,10.369 33.207,10.866 C33.142,10.443 32.79,10.113 32.347,10.113 L31.038,10.113 C30.689,10.113 30.393,10.32 30.249,10.612 C30.194,10.572 30.15,10.525 30.089,10.488 C29.486,10.14 28.855,10.113 28.092,10.113 L25.142,10.113 C24.976,10.113 24.83,10.171 24.697,10.25 C24.566,10.171 24.419,10.113 24.253,10.113 L19.969,10.113 C19.788,10.113 19.631,10.18 19.491,10.272 C19.35,10.18 19.193,10.113 19.013,10.113 L16.875,10.113 C16.521,10.113 16.199,10.326 16.061,10.654 L15.299,12.45 L14.46,10.628 C14.314,10.315 13.999,10.113 13.655,10.113 L11.56,10.113 C11.07,10.113 10.674,10.51 10.674,10.999 L10.674,11.77 L10.193,10.648 C10.052,10.323 9.733,10.112 9.378,10.112 L7.474,10.112 C7.119,10.112 6.798,10.324 6.659,10.649 L4.363,16.016 C4.245,16.289 4.274,16.603 4.437,16.853 C4.601,17.101 4.879,17.251 5.177,17.251 L6.571,17.251 C6.927,17.251 7.251,17.035 7.387,16.705 L7.658,16.053 L9.144,16.053 L9.411,16.701 C9.548,17.033 9.871,17.25 10.231,17.25 L12.84,17.25 C13.329,17.25 13.726,16.853 13.726,16.364 L13.726,16.343 L13.894,16.724 C14.035,17.046 14.353,17.253 14.703,17.253 Z M52.19,23.91 C52.19,23.16 51.99,22.602 51.55,22.15 C51.541,22.141 51.531,22.132 51.524,22.124 C51.769,21.966 51.929,21.691 51.929,21.378 L51.929,20.236 C51.929,19.746 51.533,19.349 51.044,19.349 L48.472,19.349 C47.671,19.349 47.07,19.584 46.63,19.941 C46.507,19.598 46.189,19.349 45.802,19.349 L43.232,19.349 C42.526,19.349 41.966,19.525 41.544,19.811 C41.392,19.54 41.112,19.349 40.78,19.349 L36.5,19.349 C36.154,19.349 35.865,19.551 35.719,19.838 C35.657,19.796 35.614,19.745 35.547,19.706 C34.928,19.375 34.268,19.349 33.586,19.349 L30.624,19.349 C30.277,19.349 29.985,19.552 29.84,19.842 C29.391,19.548 28.759,19.349 27.861,19.349 L23.763,19.349 C23.516,19.349 23.281,19.451 23.113,19.632 L22.142,20.68 L21.21,19.643 C21.043,19.455 20.804,19.349 20.551,19.349 L15.393,19.349 C14.904,19.349 14.507,19.745 14.507,20.236 L14.507,25.603 C14.507,26.092 14.903,26.49 15.393,26.49 L20.474,26.49 C20.721,26.49 20.956,26.386 21.124,26.205 L22.103,25.145 L23.032,26.191 C23.2,26.38 23.442,26.488 23.695,26.488 L26.188,26.488 C26.678,26.488 27.075,26.092 27.075,25.602 L27.075,24.687 L27.788,24.687 C28.654,24.687 29.282,24.509 29.737,24.238 L29.737,25.602 C29.737,26.091 30.133,26.488 30.624,26.488 L31.913,26.488 C32.402,26.488 32.799,26.092 32.799,25.602 L32.799,24.527 L33.283,24.527 C33.401,24.527 33.484,24.531 33.543,24.535 C33.549,24.63 33.549,24.746 33.547,24.822 L33.547,25.602 C33.547,26.091 33.943,26.488 34.434,26.488 L35.721,26.488 C35.863,26.488 35.992,26.447 36.111,26.388 C36.229,26.449 36.36,26.488 36.503,26.488 L40.783,26.488 C40.923,26.488 41.05,26.449 41.167,26.392 C41.285,26.449 41.411,26.488 41.552,26.488 L44.05,26.488 C44.847,26.488 45.491,26.294 45.978,25.949 C46.114,26.265 46.427,26.488 46.793,26.488 L49.291,26.488 C51.107,26.49 52.19,25.525 52.19,23.91 Z M44.215,22.342 L43.526,22.322 C43.307,22.322 43.163,22.308 43.026,22.261 C42.865,22.2 42.746,22.064 42.746,21.861 C42.746,21.691 42.798,21.562 42.94,21.474 C43.068,21.387 43.219,21.377 43.454,21.377 L45.806,21.377 L45.806,20.235 L43.236,20.235 C41.89,20.235 41.402,21.053 41.402,21.833 C41.402,23.53 42.905,23.454 44.103,23.493 C44.328,23.493 44.462,23.53 44.56,23.612 C44.65,23.688 44.716,23.81 44.716,23.967 C44.716,24.113 44.654,24.235 44.566,24.317 C44.458,24.419 44.285,24.45 44.043,24.45 L41.555,24.45 L41.555,25.601 L44.053,25.601 C45.346,25.601 46.069,25.062 46.069,23.907 C46.069,23.356 45.934,23.028 45.684,22.77 C45.389,22.478 44.911,22.359 44.215,22.342 Z M34.881,23.109 C35.165,23.213 35.4,23.404 35.508,23.56 C35.691,23.822 35.717,24.066 35.721,24.539 L35.721,25.603 L34.434,25.603 L34.434,24.932 C34.434,24.609 34.465,24.131 34.227,23.881 C34.039,23.689 33.754,23.643 33.286,23.643 L31.916,23.643 L31.916,25.603 L30.628,25.603 L30.628,20.236 L33.589,20.236 C34.238,20.236 34.71,20.263 35.134,20.488 C35.537,20.732 35.792,21.068 35.792,21.68 C35.79,22.539 35.217,22.976 34.881,23.109 Z M34.371,21.927 C34.371,21.698 34.272,21.531 34.106,21.444 C33.95,21.352 33.72,21.347 33.494,21.347 L31.914,21.347 L31.914,22.553 L33.473,22.553 C33.723,22.553 33.936,22.544 34.108,22.442 C34.272,22.342 34.371,22.156 34.371,21.927 Z M36.502,25.603 L40.782,25.603 L40.782,24.49 L37.778,24.484 L37.778,23.417 L40.708,23.417 L40.708,22.322 L37.778,22.322 L37.778,21.345 L40.782,21.345 L40.782,20.236 L36.502,20.236 L36.502,25.603 Z M49.456,22.342 L48.766,22.322 C48.549,22.322 48.404,22.308 48.266,22.261 C48.107,22.2 47.987,22.064 47.987,21.861 C47.987,21.691 48.039,21.562 48.18,21.474 C48.309,21.387 48.461,21.377 48.695,21.377 L51.048,21.377 L51.048,20.235 L48.476,20.235 C47.132,20.235 46.642,21.053 46.642,21.833 C46.642,23.53 48.146,23.454 49.345,23.493 C49.569,23.493 49.702,23.53 49.802,23.612 C49.89,23.688 49.957,23.81 49.957,23.967 C49.957,24.113 49.894,24.235 49.808,24.317 C49.699,24.419 49.526,24.45 49.284,24.45 L46.797,24.45 L46.797,25.601 L49.295,25.601 C50.588,25.601 51.309,25.062 51.309,23.907 C51.309,23.356 51.176,23.028 50.924,22.77 C50.631,22.478 50.152,22.359 49.456,22.342 Z" id="Shape"></path></g></g></svg> 