<?xml version="1.0" encoding="UTF-8"?> <svg xmlns="http://www.w3.org/2000/svg" xmlns:xlink="http://www.w3.org/1999/xlink" width="178px" height="178px" viewBox="0 0 178 178" version="1.1"><title>Artboard</title><g id="Artboard" stroke="none" stroke-width="1" fill="none" fill-rule="evenodd"><g id="AQCn3nfHjyixdFG$$rxa-birthday-lined" transform="translate(2.344964, 9.078327)" fill="#515151" fill-rule="nonzero"><path d="M15.8450361,150.171673 L15.8450361,72.111673 C15.8450361,58.021673 20.9550361,52.971673 35.1550361,52.961673 L43.8450361,52.961673 C43.8450361,46.961673 43.7750361,41.351673 43.8450361,35.751673 C43.9450361,29.551673 46.4250361,27.821673 53.5650361,29.971673 C53.8150361,33.201673 54.1950361,36.871673 54.3350361,40.551673 C54.4750361,44.231673 54.3350361,48.201673 54.3350361,52.491673 L81.6150361,52.491673 L81.6150361,28.661673 C81.6150361,25.031673 81.6950361,21.151673 86.6150361,21.021673 C91.5350361,20.891673 91.7150361,24.751673 91.7050361,28.421673 C91.7050361,36.421673 91.7050361,44.331673 91.7050361,52.611673 L118.805036,52.611673 C118.805036,46.921673 118.805036,41.321673 118.805036,35.721673 C118.865036,29.591673 120.805036,28.131673 128.455036,29.721673 C128.805036,36.891673 129.175036,44.521673 129.585036,52.931673 C133.375036,52.931673 137.135036,52.931673 140.905036,52.931673 C150.965036,53.011673 156.615036,58.441673 157.125036,68.551673 C157.245036,71.041673 157.125036,73.551673 157.125036,76.051673 L157.125036,150.051673 C160.785036,150.051673 164.125036,149.371673 166.945036,150.261673 C169.425036,151.041673 171.355036,153.581673 173.535036,155.351673 C171.295036,157.091673 169.105036,160.241673 166.805036,160.351673 C154.495036,160.851673 142.145036,160.591673 129.805036,160.591673 L9.34503614,160.591673 C7.68503614,160.591673 5.59503614,161.111673 4.44503614,160.321673 C2.53503614,158.991673 0.205036143,156.901673 0.00503614294,154.941673 C-0.134963857,153.521673 2.67503614,150.821673 4.55503614,150.391673 C7.87503614,149.631673 11.4950361,150.171673 15.8450361,150.171673 Z M146.505036,99.571673 C143.315036,102.311673 141.165036,103.751673 139.505036,105.641673 C130.785036,115.641673 121.195036,115.641673 112.505036,105.501673 C107.395036,99.551673 104.895036,99.501673 99.8250361,105.431673 C90.9950361,115.671673 81.9050361,115.731673 72.8250361,105.621673 C66.9050361,99.011673 65.5550361,99.041673 59.6450361,105.831673 C51.4650361,115.241673 41.5850361,115.131673 33.2350361,105.641673 C31.5850361,103.761673 29.5950361,102.191673 26.7550361,99.531673 L26.7550361,149.681673 L146.505036,149.681673 L146.505036,99.571673 Z M146.755036,88.011673 C146.755036,83.831673 146.515036,77.351673 146.825036,70.891673 C147.115036,65.021673 144.605036,62.741673 138.905036,62.821673 C127.245036,62.971673 115.585036,62.821673 103.905036,62.821673 C80.7583695,62.821673 57.6050361,62.821673 34.4450361,62.821673 C30.8650361,62.821673 26.7850361,62.821673 26.5350361,67.591673 C26.1350361,75.011673 26.4250361,82.461673 26.4250361,87.701673 C32.2550361,92.091673 36.9350361,95.061673 40.9150361,98.771673 C46.0150361,103.531673 47.5750361,103.771673 52.2850361,98.771673 C62.8350361,87.531673 70.7350361,87.541673 80.9450361,99.181673 C85.0150361,103.821673 88.1850361,103.181673 91.9450361,98.921673 C102.165036,87.601673 110.205036,87.621673 120.285036,98.711673 C125.285036,104.211673 126.985036,103.871673 132.285036,98.651673 C136.055036,95.061673 140.755036,92.391673 146.755036,88.011673 Z" id="Shape"></path><path d="M56.6650361,10.021673 C53.2250361,12.451673 51.2250361,15.021673 49.4350361,14.841673 C47.6450361,14.661673 45.7950361,12.011673 43.9850361,10.431673 C45.7250361,8.63167301 47.2450361,5.78167301 49.2650361,5.36167301 C50.8850361,5.02167301 53.1150361,7.65167301 56.6650361,10.021673 Z" id="Path"></path><path d="M131.435036,10.181673 C127.735036,12.591673 125.615036,15.071673 123.835036,14.841673 C122.055036,14.611673 119.135036,11.701673 119.195036,10.051673 C119.255036,8.40167301 122.115036,5.58167301 124.005036,5.35167301 C125.895036,5.12167301 127.815036,7.68167301 131.435036,10.181673 Z" id="Path"></path><path d="M94.3050361,4.26167301 C90.5150361,6.92167301 88.4650361,9.47167301 86.7750361,9.26167301 C84.9350361,9.02167301 82.5050361,6.39167301 82.1250361,4.45167301 C81.8750361,3.20167301 84.7350361,0.181673009 86.4150361,0.011673009 C88.2650361,-0.178326991 90.3450361,1.98167301 94.3050361,4.26167301 Z" id="Path"></path></g></g></svg> 