<?xml version="1.0" encoding="UTF-8"?> <svg xmlns="http://www.w3.org/2000/svg" xmlns:xlink="http://www.w3.org/1999/xlink" width="178px" height="178px" viewBox="0 0 178 178" version="1.1"><title>Artboard</title><g id="Artboard" stroke="none" stroke-width="1" fill="none" fill-rule="evenodd"><g id="BhPXDzsy4RQ8fcp$$积分兑换" transform="translate(5.012974, 5.395275)" fill="#515151" fill-rule="nonzero"><path d="M115.557026,95.6247254 C124.497026,105.374725 123.407026,112.994725 110.887026,117.904725 C91.1170263,125.664725 70.8170263,126.004725 51.2570263,116.984725 C40.3470263,111.984725 39.7070263,103.544725 48.1270263,96.5247254 C46.1970263,92.8947254 42.9570263,89.4247254 42.8770263,85.8947254 C42.7970263,82.3647254 45.8770263,78.7447254 47.7570263,74.7147254 C39.4470263,65.3747254 41.0270263,57.7147254 53.9970263,52.9047254 C72.7870263,45.9047254 91.7670263,46.0247254 110.597026,53.1247254 C112.306338,53.7743296 113.931336,54.6271176 115.437026,55.6647254 C123.437026,61.2047254 123.437026,66.9947254 115.617026,75.3447254 C123.697026,84.6747254 123.697026,86.8847254 115.557026,95.6247254 Z M47.7170263,65.1447254 C57.7170263,75.6347254 70.1770263,76.1947254 82.2670263,76.0447254 C94.0870263,75.8947254 106.567026,75.9647254 116.067026,65.0447254 C106.697026,55.1247254 95.0670263,54.5547254 83.4870263,54.4247254 C70.8870263,54.2947254 58.2870263,54.6647254 47.7170263,65.1447254 Z M108.197026,99.1447254 C90.0670263,104.014725 73.1970263,104.144725 55.5770263,99.2047254 L47.5070263,105.884725 C59.7070263,117.534725 73.9070263,117.124725 87.8870263,116.524725 C98.0370263,116.084725 108.377026,115.164725 116.237026,105.424725 L108.197026,99.1447254 Z M115.397026,85.3747254 C112.627026,81.4247254 109.767026,78.4447254 104.337026,79.7547254 C89.4070263,83.3447254 74.4470263,83.7547254 59.4870263,79.7547254 C54.3570263,78.3747254 50.2870263,81.2147254 49.0270263,86.6947254 C58.3570263,100.254725 106.697026,99.7647254 115.397026,85.3747254 Z" id="Shape"></path><path d="M126.827026,11.5447254 L126.827026,5.54472544 L131.427026,3.71472544 L138.797026,21.8247254 L136.147026,25.2147254 C96.2770263,-1.58527456 58.5770263,-1.58527456 24.6270263,34.2147254 C11.4370263,48.1347254 6.06702627,66.0147254 6.18702627,85.2147254 C6.30702627,104.214725 13.3170263,120.884725 25.7670263,136.124725 L20.4970263,139.404725 C11.2890731,129.184306 4.95102438,116.708321 2.12702627,103.244725 C-8.14297373,56.3047254 19.6570263,12.3647254 66.5270263,1.90472544 C84.7270263,-2.15527456 102.627026,0.43472544 119.687026,8.15472544 C122.097026,9.24472544 124.497026,10.3547254 126.897026,11.4547254 L127.047026,11.5647254 L126.827026,11.5447254 Z" id="Path"></path><path d="M44.3070263,159.934725 L46.4870263,168.054725 L40.6170263,168.054725 C37.9070263,161.784725 35.2270263,155.564725 32.4070263,149.054725 L35.8170263,146.054725 C72.2770263,168.614725 108.077026,169.444725 138.727026,138.444725 C169.187026,107.704725 168.167026,72.0147254 145.487026,35.6047254 L150.487026,32.8547254 C161.337026,46.8547254 166.977026,62.1047254 167.747026,78.9647254 C170.377026,136.134725 120.447026,178.244725 64.5070263,165.964725 C57.9170263,164.514725 51.7170263,161.334725 45.3270263,158.964725 L44.0470263,158.554725 L44.3070263,159.934725 Z" id="Path"></path></g></g></svg> 