<?xml version="1.0" encoding="UTF-8"?> <svg xmlns="http://www.w3.org/2000/svg" xmlns:xlink="http://www.w3.org/1999/xlink" width="191px" height="117px" viewBox="0 0 191 117" version="1.1"><title>Maestro</title><g id="Maestro" stroke="none" stroke-width="1" fill="none" fill-rule="evenodd"><g id="maestro-2" transform="translate(1.834000, 1.992000)" fill-rule="nonzero"><path d="M93.544,98.18 C105.291072,87.4632641 111.971855,72.2879844 111.943096,56.387 C111.97223,40.4859372 105.291383,25.3105129 93.544,14.594 C83.61,5.526 70.432,0 55.971,0 C25.06,0 0,25.245 0,56.387 C0,87.528 25.06,112.774 55.971,112.774 C70.432,112.774 83.611,107.248 93.544,98.18 Z" id="Path" fill="#FFFFFF"></path><path d="M131.117,1.42108547e-14 C116.656,1.42108547e-14 103.476,5.526 93.544,14.594 C91.5184922,16.4447771 89.6298721,18.4400102 87.893,20.564 L99.191,20.564 C100.742095,22.4597958 102.16843,24.4543266 103.461,26.535 L83.626,26.535 C82.4319706,28.4590537 81.3543707,30.4529642 80.399,32.506 L106.683,32.506 C107.587705,34.4491501 108.380664,36.4423974 109.058,38.476 L78.029,38.476 C77.3783685,40.4347262 76.8358837,42.4277319 76.404,44.446 L110.684,44.446 C111.52322,48.370874 111.945563,52.3734076 111.944,56.387 C111.944,62.647 110.928,68.67 109.059,74.297 L78.029,74.297 C78.7039435,76.3310984 79.4952486,78.3247197 80.399,80.268 L106.683,80.268 C105.729384,82.3211676 104.653106,84.315103 103.46,86.239 L83.626,86.239 C84.9172938,88.3195494 86.3422902,90.3140767 87.892,92.21 L99.191,92.21 C97.4563222,94.3349632 95.5689831,96.3305895 93.544,98.181 C103.476,107.249 116.656,112.775 131.117,112.775 C162.027,112.775 187.088,87.529 187.088,56.388 C187.088,25.245 162.027,1.42108547e-14 131.117,1.42108547e-14 Z" id="Path" fill="#D6D6D6"></path><path d="M167.799,68.608 C167.799,67.602 168.608,66.786 169.606,66.786 C170.604,66.786 171.413,67.602 171.413,68.608 C171.413,69.614 170.604,70.428 169.606,70.428 C168.608,70.428 167.799,69.613 167.799,68.608 Z M169.605,69.99 C170.363,69.99 170.978,69.371 170.978,68.607 C170.978,67.841 170.363,67.222 169.605,67.222 C168.845,67.222 168.232,67.841 168.232,68.607 C168.232,69.371 168.846,69.99 169.605,69.99 Z M169.361,69.406 L168.99,69.406 L168.99,67.806 L169.662,67.806 C169.801,67.806 169.945,67.808 170.066,67.888 C170.195592,67.978697 170.271665,68.1278449 170.269,68.286 C170.269,68.468 170.165,68.636 169.994,68.7 L170.287,69.405 L169.877,69.405 L169.633,68.772 L169.362,68.772 L169.362,69.406 L169.362,68.5 L169.567,68.5 C169.643,68.5 169.727,68.506 169.792,68.469 C169.851705,68.4268742 169.886858,68.3580656 169.886,68.285 C169.884647,68.2188989 169.851031,68.1576439 169.796,68.121 C169.732,68.084 169.628,68.092 169.56,68.092 L169.363,68.092 L169.363,69.406 L169.361,69.406 Z M48.979,70.428 L42.013,70.428 L46.153,48.452 L36.621,70.428 L30.269,70.428 L29.108,48.578 L24.955,70.428 L18.632,70.428 L24.035,41.841 L34.905,41.841 L35.48,59.539 L43.144,41.841 L54.471,41.841 L48.979,70.428 L48.979,70.428 Z M126.83,70.143 C124.924,70.67 123.434,70.897 121.824,70.897 C118.26,70.897 116.314,69.096 116.314,65.792 C116.314,65.138 116.386,64.442 116.519,63.706 L116.943,61.433 L117.269,59.593 L120.498,41.84 L127.426,41.84 L126.422,47.179 L129.977,47.179 L129.022,52.831 L125.452,52.831 L123.616,62.531 C123.547947,62.8478515 123.508124,63.1701136 123.497,63.494 C123.497,64.695 124.218,65.217 125.874,65.217 C126.667,65.217 127.282,65.145 127.753,65 L126.83,70.143 L126.83,70.143 Z M147.176,47.37 C146.592,47.138 146.455,47.138 146.387,47.119 C146.018,47.037 145.821,46.989 145.787,46.983 C145.555564,46.942537 145.320939,46.9231243 145.086,46.924876 C142.799,46.924876 141.15,47.951 139.018,50.7 L139.633,47.177 L133.324,47.177 L129.078,70.427 L136.049,70.427 C138.543,56.208 139.611,53.718 142.955,53.718 C143.207,53.718 143.498,53.738 143.836,53.777 L144.65,53.944 L147.176,47.37 L147.176,47.37 Z M99.215,54.524 C99.215,57.461 100.858,59.484 104.582,61.004 C107.436,62.172 107.877,62.514 107.877,63.57 C107.877,65.017 106.619,65.67 103.832,65.67 C101.728,65.67 99.773,65.385 97.516,64.75 L96.549,70.113 L96.861,70.166 L98.152,70.404 C98.568,70.476 99.181,70.545 99.994,70.607 C101.67,70.738 102.967,70.8 103.881,70.8 C111.317,70.8 114.752,68.345 114.752,63.042 C114.752,59.851 113.316,57.98 109.785,56.571 C106.83,55.394 106.488,55.133 106.488,54.048 C106.488,52.795 107.66,52.151 109.937,52.151 C111.322,52.151 113.21,52.282 115.001,52.5 L116.005,47.118 C114.181,46.868 111.413,46.663 109.804,46.663 C101.92,46.664 99.191,50.236 99.215,54.524 L99.215,54.524 Z M71.625,70.428 L65.836,70.428 L65.971,68.018 C64.208,69.926 61.858,70.83 58.664,70.83 C54.889,70.83 52.298,68.24 52.298,64.48 C52.298,58.816 56.799,55.515 64.535,55.515 C65.328,55.515 66.335,55.578 67.373,55.694 C67.589,54.93 67.648,54.6 67.648,54.184 C67.648,52.645 66.433,52.069 63.18,52.069 C61.191,52.069 58.943,52.321 57.391,52.717 L56.426,52.964 L55.801,53.114 L56.767,47.887 C60.24,46.991 62.532,46.652 65.107,46.652 C71.094,46.652 74.258,49.014 74.258,53.472 C74.258,54.619 74.153,55.49 73.692,58.078 L72.236,66.326 L71.991,67.806 L71.813,68.988 L71.694,69.797 L71.625,70.428 L71.625,70.428 Z M66.543,60.07 C66.0264948,60.0057235 65.5064892,59.9736615 64.986,59.9739973 C61.038,59.9739973 59.038,61.163 59.038,63.511 C59.038,64.958 60.014,65.8820003 61.537,65.8820003 C64.377,65.883 66.423,63.508 66.543,60.07 L66.543,60.07 Z M94.478,69.926 C92.151405,70.5574384 89.7507525,70.8745882 87.34,70.8690726 C79.552,70.863 75.493,67.291 75.493,60.453 C75.493,52.472 80.657,46.596 87.667,46.596 C93.402,46.596 97.064,49.887 97.064,55.047 C97.064,56.76 96.814,58.43 96.209,60.787 L82.358,60.787 C82.3156369,61.0280778 82.2932276,61.2722386 82.291,61.517 C82.291,64.212 84.356,65.587 88.402,65.587 C90.89,65.587 93.139,65.132 95.636,64.116 L94.478,69.926 Z M90.768,56.092 C90.806,55.608 90.826,55.212 90.826,54.906 C90.826,53.018 89.605,51.91 87.531,51.91 C85.315,51.91 83.73,53.396 83.087,56.078 L90.768,56.092 Z M168.83,59.887 C167.787,67.621 162.426,71.051 155.299,71.051 C147.418,71.051 144.235,66.235 144.235,60.334 C144.235,52.094 149.626,46.511 157.952,46.511 C165.179,46.511 169.016,51.102 169.016,57.004 C169.016,58.44 169.014,58.535 168.83,59.887 Z M161.656,56.912 C161.656,54.48 160.676,52.184 157.82,52.184 C154.265,52.184 152.062,56.417 152.062,60.154 C152.062,63.306 153.572,65.424 156.062,65.379 C157.572,65.379 160.792,63.307 161.429,59.688 C161.578,58.844 161.656,57.918 161.656,56.912 L161.656,56.912 Z" id="Shape" fill="#000000"></path></g></g></svg> 