<?xml version="1.0" encoding="UTF-8"?> <svg xmlns="http://www.w3.org/2000/svg" xmlns:xlink="http://www.w3.org/1999/xlink" width="181px" height="109px" viewBox="0 0 181 109" version="1.1"><title>MasterCard</title><g id="MasterCard" stroke="none" stroke-width="1" fill="none" fill-rule="evenodd"><g id="mastercard-7" transform="translate(2.503000, 2.357000)" fill-rule="nonzero"><path d="M175.749,52.022 C175.749,23.292 152.458,-7.10542736e-15 123.729,-7.10542736e-15 C111.262,-7.10542736e-15 99.918,4.364 90.959,11.677 C97.793,18.275 103.01,26.536 105.809,35.874 L101.487,35.874 C98.778,27.572 94.02,20.247 87.835,14.369 C81.6086606,20.2983765 76.948771,27.6783387 74.272,35.849 L69.949,35.849 C72.7094845,26.6821736 77.7684274,18.3736104 84.645,11.713 C75.708,4.475 64.418,-7.10542736e-15 52.021,-7.10542736e-15 C23.292,-7.10542736e-15 0,23.291 0,52.021 C0,80.75 23.291,104.041 52.021,104.041 C64.417,104.041 75.708,99.566 84.645,92.328 C77.864,85.75 72.736,77.478 69.949,68.193 L74.272,68.193 C76.9489985,76.3635542 81.6088551,83.7434641 87.835,89.673 C94.021,83.794 98.778,76.47 101.487,68.167 L105.809,68.167 C103.01,77.505 97.793,85.767 90.959,92.364 C99.918,99.676 111.262,104.041 123.729,104.041 C152.458,104.041 175.749,80.75 175.749,52.022 L175.749,52.022 Z" id="Path" fill="#FFFFFF"></path><path d="M137.517,64.207 L141.109,44.959 L145.65,44.959 L146.125,46.856 C146.939,45.906 148.498,44.959 151.141,44.959 L149.719,49.973 C148.43,49.973 145.99,49.636 144.432,55.396 L142.805,64.207 L137.517,64.207 L137.517,64.207 Z M67.912,40.067 L73.146,40.067 L72.072,45.167 L74.889,45.167 L73.951,49.327 L71.267,49.327 L69.79,57.11 C69.521,58.587 69.656,59.93 72.676,59.46 L72.34,63.351 C71.199,64.089 69.656,64.292 68.447,64.292 C67.24,64.292 63.28,63.552 64.288,58.319 L67.912,40.067 L67.912,40.067 Z M90.593,55.635 C91.197,52.547 92.607,44.899 83.414,44.899 C74.958,44.899 73.885,53.286 73.684,54.493 C73.483,55.702 73.349,64.223 82.407,64.223 C84.622,64.291 87.843,64.022 89.119,63.35 L89.924,59.393 C89.119,59.592 86.098,59.862 84.017,59.862 C81.938,59.862 78.583,59.997 79.186,55.635 L90.593,55.635 L90.593,55.635 Z M62.948,49.462 L64.155,45.569 C61.672,44.63 59.727,44.832 58.988,44.832 C58.249,44.832 51.966,44.755 51.003,49.395 C50.265,52.952 51.567,54.423 52.815,54.964 C54.829,55.837 55.97,56.642 57.044,57.179 C58.372,57.843 58.128,60.064 56.372,60.064 C55.566,60.064 52.078,60.466 49.461,59.593 L48.723,63.552 C51.139,64.224 53.083,64.224 54.897,64.224 C56.171,64.224 62.412,64.56 63.283,58.788 C63.709,55.974 62.478,54.694 61.471,54.093 C60.465,53.421 58.787,52.482 57.714,52.011 C56.64,51.542 55.835,49.731 57.781,49.194 C58.988,49.059 61.47,49.059 62.948,49.462 L62.948,49.462 Z M28.994,64.223 L33.355,41.006 L24.767,41.006 L18.391,55.098 L17.384,41.006 L8.997,41.006 L4.501,64.223 L9.734,64.223 L12.955,47.448 L14.365,64.223 L19.33,64.223 L26.645,47.851 L23.558,64.223 L28.994,64.223 L28.994,64.223 Z M34.763,45.503 L33.958,49.663 C35.234,49.53 38.656,48.993 40.467,49.059 C42.28,49.126 44.292,48.858 43.688,51.743 C42.346,51.878 32.952,50.401 31.477,58.452 C30.873,62.413 34.294,64.425 36.978,64.292 C39.662,64.157 40.4,63.821 41.34,63.149 L42.011,64.223 L46.908,64.223 L48.989,53.756 C49.526,51.139 50.397,44.831 41.608,44.831 C39.998,44.899 38.187,44.831 34.763,45.503 L34.763,45.503 Z M119.581,46.374 C118.237,45.568 117.3,45.435 115.554,45.435 C113.81,45.435 109.917,47.102 109.181,51.81 C108.308,57.379 112.132,60.129 117.501,58.319 L119.044,63.016 C117.3,63.821 115.554,64.223 112.669,64.223 C107.233,64.223 101.329,59.393 104.013,49.595 C105.992,42.376 112.201,39.732 115.824,39.866 C120.117,40.026 121.662,41.476 123.004,42.953 L119.581,46.374 L119.581,46.374 Z M164.204,47.179 C163.196,46.442 162.595,44.899 160.11,44.899 C157.225,44.899 152.729,44.362 150.18,53.085 C148.475,58.915 151.924,64.224 155.68,64.224 C157.426,64.158 159.17,63.419 160.242,62.681 L160.916,64.224 L166.551,64.224 L171.115,39.8 L165.611,39.8 L164.204,47.179 L164.204,47.179 Z M123.339,45.503 L122.532,49.663 C123.809,49.53 127.229,48.993 129.042,49.059 C130.854,49.126 132.868,48.858 132.263,51.743 C130.921,51.878 121.527,50.401 120.052,58.452 C119.447,62.413 122.868,64.425 125.552,64.292 C128.238,64.157 128.974,63.821 129.915,63.149 L130.587,64.223 L135.483,64.223 L137.565,53.756 C138.102,51.139 138.973,44.831 130.182,44.831 C128.573,44.899 126.761,44.831 123.339,45.503 L123.339,45.503 Z" id="Shape" fill="#000000"></path><path d="M79.521,52.146 L86.03,52.146 C86.366,50.267 85.762,48.656 83.682,48.656 C81.601,48.656 80.125,49.73 79.521,52.146 Z M42.817,55.635 C41.944,55.498 39.998,54.963 38.32,56.104 C36.642,57.245 36.173,59.256 37.918,59.93 C39.597,60.575 42.076,59.461 42.414,57.713 L42.817,55.635 L42.817,55.635 Z M162.325,55.03 C162.862,53.286 162.569,51.108 161.989,50.335 C160.38,48.188 156.677,49.885 155.548,54.093 C154.81,56.843 156.421,58.923 158.232,58.923 C160.179,58.922 161.386,57.379 162.325,55.03 L162.325,55.03 Z M131.392,55.635 C130.519,55.498 128.574,54.963 126.896,56.104 C125.218,57.245 124.748,59.256 126.494,59.93 C128.174,60.575 130.652,59.461 130.988,57.713 L131.392,55.635 L131.392,55.635 Z" id="Shape" fill="#FFFFFF"></path><path d="M90.743,64.223 L94.3,45.167 L98.796,45.167 L99.265,47.046 C100.072,46.106 101.615,45.167 104.23,45.167 L102.888,50.2 C101.615,50.2 99.13,49.798 97.587,55.499 L95.978,64.224 L90.743,64.224 L90.743,64.223 Z" id="Path" fill="#000000"></path></g></g></svg> 