<?xml version="1.0" encoding="UTF-8"?> <svg xmlns="http://www.w3.org/2000/svg" xmlns:xlink="http://www.w3.org/1999/xlink" width="40px" height="12px" viewBox="0 0 40 12" version="1.1"><title>PayPal</title><g id="PayPal" stroke="none" stroke-width="1" fill="none" fill-rule="evenodd"><g id="paypal" transform="translate(1.597306, 1.031722)" fill="#FFFFFF" fill-rule="nonzero"><path d="M36.5526943,0.0682781624 L35.2326943,0.0682781624 C35.1127441,0.0620509292 35.0081995,0.149171487 34.9926943,0.268278162 L33.8226943,7.73827816 C33.8091432,7.8632458 33.8904891,7.97884268 34.0126943,8.00827816 L35.2326943,8.00827816 C35.4291581,8.00250069 35.5953413,7.86124498 35.6326943,7.66827816 L36.7926943,0.338278162 C36.8106537,0.208837326 36.7217507,0.0888183331 36.5926943,0.0682781624 L36.5926943,0.0682781624 M20.2726943,2.73827816 L18.8926943,2.73827816 C18.7730773,2.73350979 18.6582068,2.7853868 18.5826943,2.87827816 L16.6626943,5.70827816 L15.8526943,2.96827816 C15.8052515,2.80134951 15.6454712,2.69202613 15.4726943,2.70827816 L14.1226943,2.70827816 C14.0653235,2.70273557 14.0081965,2.72101706 13.9647026,2.75883779 C13.9212088,2.79665853 13.8951718,2.85069358 13.8926943,2.90827816 L13.8926943,2.90827816 L13.8926943,2.98827816 L15.4026943,7.48827816 L13.9726943,9.48827816 C13.8875275,9.57406301 13.8875275,9.71249331 13.9726943,9.79827816 L13.9726943,9.79827816 C14.0183238,9.81219175 14.0670647,9.81219175 14.1126943,9.79827816 L15.4926943,9.79827816 C15.6213606,9.78929211 15.7406801,9.72782449 15.8226943,9.62827816 L20.3926943,3.00827816 C20.4372934,2.96496724 20.4624601,2.90544661 20.4624601,2.84327816 C20.4624601,2.78110972 20.4372934,2.72158908 20.3926943,2.67827816 L20.3926943,2.67827816 C20.351612,2.65852491 20.3037765,2.65852491 20.2626943,2.67827816 M4.74269426,2.67827816 C4.58269426,3.72827816 3.80269426,3.72827816 3.04269426,3.72827816 L2.61269426,3.72827816 L2.92269426,1.86827816 C2.9424145,1.75154136 3.04431507,1.66662422 3.16269426,1.66827816 L3.40269426,1.66827816 C3.92269426,1.66827816 4.40269426,1.66827816 4.65269426,1.96827816 C4.80391741,2.18314087 4.85831215,2.45148822 4.80269426,2.70827816 M6.56269426,0.798278162 C5.99715941,0.228111693 5.19988356,-0.0487202004 4.40269426,0.0482781624 L1.56269426,0.0482781624 C1.35991924,0.0466884816 1.18803568,0.197086592 1.16269426,0.398278162 L0.00269425897,7.73827816 C-0.0158494287,7.85898865 0.0631818599,7.97314496 0.182694259,7.99827816 L1.61269426,7.99827816 C1.8051582,7.99643493 1.96902035,7.85778235 2.00269426,7.66827816 L2.32269426,5.66827816 C2.343551,5.4702769 2.51369835,5.32194332 2.71269426,5.32827816 L3.61269426,5.32827816 C4.40925915,5.41740994 5.20768235,5.17744945 5.82312983,4.66394726 C6.43857731,4.15044507 6.81768656,3.4079245 6.87269426,2.60827816 C7.03286403,1.9751485 6.90074836,1.3035605 6.51269426,0.778278162 M11.0726943,5.35827816 C10.98352,6.14852152 10.2857801,6.72702735 9.49269426,6.66827816 C9.14597433,6.68371477 8.80865385,6.5531391 8.56269426,6.30827816 C8.35222414,6.0206191 8.27571736,5.6563011 8.35269426,5.30827816 C8.45447752,4.54003631 9.1179237,3.97136816 9.89269426,3.98827816 C10.2393791,3.96284486 10.577404,4.10429526 10.802652,4.36906042 C11.0278999,4.63382557 11.1133545,4.99014925 11.0326943,5.32827816 M12.9726943,2.66827816 L11.6026943,2.66827816 C11.5288779,2.66462314 11.4585744,2.70003997 11.4175783,2.76153416 C11.3765821,2.82302835 11.3709295,2.90154574 11.4026943,2.96827816 L11.3426943,3.34827816 L11.2426943,3.20827816 C10.8254278,2.76794246 10.2254089,2.54941708 9.62269426,2.61827816 C8.05461864,2.6404526 6.7416781,3.81272094 6.54269426,5.36827816 C6.39691838,6.11386776 6.58715952,6.88580777 7.06269426,7.47827816 C7.500683,7.95871465 8.13410393,8.21281955 8.78269426,8.16827816 C9.49100666,8.18334846 10.1756525,7.91309352 10.6826943,7.41827816 L10.6226943,7.79827816 C10.603644,7.92680421 10.6862227,8.04849907 10.8126943,8.07827816 L12.0926943,8.07827816 C12.2853569,8.06797603 12.4462194,7.92773686 12.4826943,7.73827816 L13.2226943,3.04827816 C13.2546843,2.92692381 13.1834868,2.80232819 13.0626943,2.76827816 L13.0626943,2.76827816 M25.2426943,2.76827816 C25.0926943,3.76827816 24.3026943,3.76827816 23.5426943,3.76827816 L23.0926943,3.76827816 L23.3926943,1.84827816 C23.4251572,1.74517438 23.5250358,1.67858861 23.6326943,1.68827816 L23.8326943,1.68827816 C24.3526943,1.68827816 24.8326943,1.68827816 25.0926943,1.97827816 C25.2454836,2.203801 25.2996577,2.4818944 25.2426943,2.74827816 M27.0026943,0.748278162 C26.4420632,0.217085697 25.6826712,-0.0517899299 24.9126943,0.0082781624 L22.0126943,0.0082781624 C21.8240252,0.0148242231 21.6656177,0.152388655 21.6326943,0.338278162 L20.4026943,7.70827816 C20.3880156,7.77086719 20.4002018,7.83674299 20.4362992,7.88993912 C20.4723965,7.94313525 20.5291102,7.97879598 20.5926943,7.98827816 L22.1026943,7.98827816 C22.2359687,7.9856553 22.3489165,7.88944052 22.3726943,7.75827816 L22.7226943,5.75827816 C22.7557435,5.56687091 22.9185684,5.424921 23.1126943,5.41827816 L24.0226943,5.41827816 C24.8182252,5.50742242 25.6155898,5.26719203 26.2294734,4.75341866 C26.843357,4.23964529 27.2202988,3.49707156 27.2726943,2.69827816 C27.4334047,2.05874984 27.3014939,1.38087479 26.9126943,0.848278162 M31.4726943,5.43827816 C31.3620294,6.20575454 30.6979996,6.77125083 29.9226943,6.75827816 C29.6374786,6.78309302 29.3544978,6.6903694 29.1392743,6.50157689 C28.9240509,6.31278437 28.7952498,6.04429584 28.7826943,5.75827816 L28.7826943,5.75827816 C28.7526413,5.64015979 28.7526413,5.51639653 28.7826943,5.39827816 C28.8815342,4.65272833 29.5107382,4.09154633 30.2626943,4.07827816 C30.6095135,4.05626959 30.9476848,4.19227328 31.1826943,4.44827816 C31.4051964,4.73037234 31.4895947,5.09732139 31.4126943,5.44827816 M33.4126943,2.81827816 L32.0126943,2.81827816 C31.9553235,2.81273557 31.8981965,2.83101706 31.8547026,2.86883779 C31.8112088,2.90665853 31.7851718,2.96069358 31.7826943,3.01827816 L31.7126943,3.39827816 L31.6126943,3.25827816 C31.1973743,2.82280249 30.5995011,2.6111331 30.0026943,2.68827816 C28.443928,2.7153267 27.1410584,3.88194844 26.9426943,5.42827816 C26.7938455,6.17553603 26.9802701,6.95047746 27.4526943,7.54827816 C27.8937839,8.03032433 28.5309296,8.28444604 29.1826943,8.23827816 C29.8867315,8.25671165 30.5683375,7.98983943 31.0726943,7.49827816 L31.0126943,7.87827816 C30.9999261,8.00634118 31.0864686,8.1231735 31.2126943,8.14827816 L32.5226943,8.14827816 C32.7137154,8.1426125 32.8754895,8.00572675 32.9126943,7.81827816 L33.6626943,3.12827816 C33.7024645,3.00413629 33.6358699,2.87094708 33.5126943,2.82827816 L33.4026943,2.82827816" id="Shape"></path></g></g></svg> 