<?xml version="1.0" encoding="UTF-8"?> <svg xmlns="http://www.w3.org/2000/svg" xmlns:xlink="http://www.w3.org/1999/xlink" width="200px" height="200px" viewBox="0 0 200 200" version="1.1"><title>Artboard</title><g id="Artboard" stroke="none" stroke-width="1" fill="none" fill-rule="evenodd"><g id="Sh2iwF36HnYwnSD$$图片3" transform="translate(2.865793, 54.034071)" fill="#515151" fill-rule="nonzero"><path d="M14.3142073,53.5959287 L7.4442073,55.4659287 C0.264207299,52.6559287 -0.795792701,49.8459287 0.444207299,37.1459287 C1.1442073,29.8859287 6.6542073,30.6459287 12.0742073,30.7159287 C12.4442073,28.5359287 12.8942073,26.6559287 13.0742073,24.7159287 C14.6142073,7.43592875 24.8842073,-0.894071253 42.1442073,0.0759287469 C66.3942073,1.44592875 90.6742073,2.62592875 114.954207,2.98592875 C126.544207,3.15592875 138.184207,1.36592875 149.784207,0.265928747 C168.134207,-1.47407125 177.304207,5.57592875 179.974207,23.9059287 C180.544207,27.7859287 181.674207,30.1359287 186.344207,29.2559287 C191.014207,28.3759287 193.534207,31.2559287 194.044207,35.6159287 C194.292692,38.7699953 194.326103,41.9373223 194.144207,45.0959287 C194.044207,51.4659287 190.294207,54.4159287 184.144207,53.2659287 C182.446184,53.0895259 180.735357,53.0727859 179.034207,53.2159287 C176.914207,58.5259287 175.344207,63.6459287 172.914207,68.3059287 C158.644207,95.7059287 127.164207,99.8459287 106.244207,77.2059287 C99.9442073,70.3959287 93.1342073,70.2059287 87.1542073,77.0959287 C65.1542073,102.545929 27.9142073,93.7359287 17.0742073,60.6459287 C16.3042073,58.5059287 15.3842073,56.3959287 14.3142073,53.5959287 Z M174.224207,33.8659287 C174.374636,30.8678145 174.374636,27.864043 174.224207,24.8659287 C172.974207,12.5959287 165.914207,6.26592875 153.634207,6.64592875 C147.824207,6.82592875 142.034207,7.86592875 136.214207,8.10592875 C117.944207,8.86592875 99.6442073,10.0459287 81.3742073,9.85592875 C67.2542073,9.70592875 53.1642073,7.41592875 39.0342073,6.69592875 C27.8442073,6.12592875 21.9542073,11.0859287 19.7742073,22.0659287 C16.7270107,37.0816017 19.0636042,52.6907543 26.3742073,66.1559287 C38.0042073,88.1559287 64.6942073,91.2559287 81.7342073,73.2659287 C92.3742073,62.0359287 100.644207,62.0559287 111.574207,73.3659287 C129.284207,91.6859287 155.654207,87.8759287 167.454207,65.2259287 C172.524207,55.4659287 174.284207,44.8659287 174.224207,33.8659287 Z M187.884207,36.7359287 L180.524207,37.1359287 C180.304207,39.9959287 180.124207,42.4459287 179.904207,45.3159287 L187.904207,45.8859287 L187.884207,36.7359287 Z M5.8842073,47.2259287 L13.4142073,46.8659287 L12.6742073,38.8059287 L6.3642073,38.1959287 L5.8842073,47.2259287 Z" id="Shape"></path><path d="M85.6542073,19.5859287 L96.9242073,44.8659287 C102.864207,36.5459287 103.924207,26.7359287 109.514207,19.6759287 L111.704207,20.3359287 L115.474207,55.5659287 L108.964207,55.5659287 C108.274207,48.1259287 107.624207,40.9759287 106.964207,33.8359287 L105.424207,33.6759287 C102.284207,40.9959287 99.1442073,48.3259287 95.2642073,57.3559287 C91.5542073,48.7059287 88.4942073,41.5859287 85.4342073,34.4659287 L83.7542073,34.5659287 L81.5342073,55.8659287 L78.5942073,55.4459287 L83.0942073,20.2859287 L85.6542073,19.5859287 Z" id="Path"></path></g></g></svg> 