<?xml version="1.0" encoding="UTF-8"?> <svg xmlns="http://www.w3.org/2000/svg" xmlns:xlink="http://www.w3.org/1999/xlink" width="34px" height="12px" viewBox="0 0 34 12" version="1.1"><title>Visa</title><g id="Visa" stroke="none" stroke-width="1" fill="none" fill-rule="evenodd"><g id="visa" transform="translate(1.000000, 1.003850)" fill="#FFFFFF"><path d="M19.253,2.85614987 C19.253,3.31014987 19.802,3.60914987 20.708,4.05614987 C22.202,4.74614987 22.893,5.58314987 22.883,6.68314987 C22.863,8.69014987 21.095,9.98314987 18.372,9.98314987 C17.3866219,9.98812725 16.4086051,9.81326355 15.486,9.46714987 L15.849,7.30214987 L16.184,7.45514987 C16.9452115,7.8144433 17.7806374,7.98851892 18.622,7.96314987 C19.367,7.96314987 20.166,7.66314987 20.172,7.01914987 C20.172,6.59614987 19.838,6.29314987 18.829,5.81914987 C17.846,5.35614987 16.545,4.58114987 16.559,3.19114987 C16.575,1.31114987 18.378,0.000149866601 20.938,0.000149866601 C21.7301123,-0.00519256798 22.5166971,0.132341215 23.26,0.406149867 L22.909,2.50614987 L22.677,2.39614987 C22.063634,2.1374789 21.4025153,2.01138927 20.737,2.02614987 C19.723,2.02514987 19.253,2.45514987 19.253,2.85614987 Z" id="Path" fill-rule="nonzero"></path><path d="M27.9,0.182149867 L29.9,0.182149867 L32,9.84614987 L29.6,9.84614987 C29.6,9.84614987 29.362,8.73614987 29.285,8.39714987 L27.465,8.39714987 L27.465,8.39714987 L25.971,8.39714987 C25.871,8.65914987 25.426,9.85014987 25.426,9.85014987 L22.7,9.85014987 L26.548,0.988149867 C26.7624205,0.442849816 27.3183404,0.111436004 27.9,0.182149867 Z M27.739,3.71214987 C27.739,3.71214987 26.921,5.85814987 26.707,6.41214987 L28.857,6.41214987 L28.257,3.61914987 L28.081,2.78614987 C28.013,2.97414987 27.92,3.22214987 27.847,3.41314987 C27.774,3.60414987 27.733,3.72414987 27.741,3.71214987 L27.739,3.71214987 Z" id="Shape"></path><polygon id="Path" fill-rule="nonzero" points="11.273 9.84414987 13.863 9.84414987 15.484 0.173149867 12.893 0.173149867"></polygon><path d="M6.564,6.77514987 L9.1,0.180149867 L11.845,0.180149867 L7.766,9.83214987 L5.025,9.83214987 L2.725,1.43214987 C1.86900807,0.957434315 0.95220755,0.601816647 0,0.375149867 L0.033,0.175149867 L4.211,0.175149867 C4.75306002,0.114848029 5.25563728,0.46630964 5.385,0.996149867 L6.294,5.43814987 L6.564,6.77514987 Z" id="Path" fill-rule="nonzero"></path></g></g></svg> 