<?xml version="1.0" encoding="UTF-8"?> <svg xmlns="http://www.w3.org/2000/svg" xmlns:xlink="http://www.w3.org/1999/xlink" width="73px" height="73px" viewBox="0 0 73 73" version="1.1"><title>Artboard</title><g id="Artboard" stroke="none" stroke-width="1" fill="none" fill-rule="evenodd"><g id="ZNkZGPMbAt5X5ji$$图片5" transform="translate(1.621843, 9.640000)" fill="#515151" fill-rule="nonzero"><path d="M40.638157,35.9 C39.907806,35.691038 39.1565613,35.5635947 38.398157,35.52 C33.198157,35.83 29.078157,33.6 25.308157,30.28 C19.058157,24.78 12.988157,25.74 7.11815696,30.46 C5.09659025,31.938128 4.0329938,34.3943472 4.33815696,36.88 C4.45815696,39.15 4.33815696,41.44 4.26815696,43.71 C4.26815696,45 3.76815696,46.24 2.37815696,45.93 C1.43815696,45.72 0.018156956,44.57 0.008156956,43.83 C0.008156956,39.75 -0.131843044,35.57 0.748156956,31.65 C1.17815696,29.65 3.49815696,27.95 5.29815696,26.53 C10.738157,22.22 16.808157,20.75 23.298157,23.91 C25.698157,25.07 27.688157,27.08 30.018157,28.43 C31.9431503,29.5225718 33.9819599,30.4011377 36.098157,31.05 C37.51163,31.3463226 38.9542797,31.4805226 40.398157,31.45 C42.528157,31.62 44.448157,32.14 45.198157,34.6 C49.138157,33.81 52.808157,32.6 55.788157,30.03 C60.138157,26.37 66.238157,26.3 68.878157,32.86 C69.1320103,33.3525437 69.4298903,33.821119 69.768157,34.26 C65.048157,40.1 59.998157,45.63 53.648157,49.8 C50.2034298,52.186069 46.1459719,53.5327702 41.958157,53.68 C30.348157,53.92 18.728157,54.29 7.11815696,54.61 C6.66815696,54.61 6.20815696,54.61 5.75815696,54.61 C4.18815696,54.61 2.18815696,54.85 2.20815696,52.54 C2.22815696,50.23 4.25815696,50.43 5.79815696,50.38 C13.378157,50.13 20.978157,49.95 28.568157,49.74 C33.348157,49.61 38.128157,49.48 42.908157,49.32 C47.058157,49.18 50.488157,47.18 53.508157,44.65 C57.128157,41.65 60.448157,38.23 63.838157,34.93 C64.228157,34.54 64.538157,33.39 64.328157,33.2 C63.648157,32.58 62.618157,31.76 61.898157,31.9 C60.4382426,32.1656514 59.0651989,32.783521 57.898157,33.7 C54.508157,36.53 50.398157,37.53 46.368157,38.82 C45.4773086,39.1236583 44.6810909,39.6544701 44.058157,40.36 C39.698157,45.45 34.218157,45.84 28.318157,44.1 C25.318157,43.22 22.498157,41.97 19.608157,40.83 C18.108157,40.24 17.438157,39.05 18.108157,37.55 C18.778157,36.05 20.108157,36.41 21.418157,36.9 C24.3932634,38.2033368 27.4536775,39.3025467 30.578157,40.19 C32.7959833,40.5463186 35.058272,40.5226474 37.268157,40.12 C39.428157,39.9 40.368157,38.24 40.638157,35.9 Z" id="Path"></path><path d="M34.898157,0.03 C41.728157,0.03 48.568157,0.03 55.398157,0.03 C58.968157,0.03 60.218157,1.28 60.248157,4.82 C60.248157,8.92 60.248157,13.02 60.248157,17.12 C60.248157,20.63 58.798157,22.12 55.248157,22.12 C47.888157,22.17 40.518157,22.12 33.148157,22.12 C31.558157,22.12 30.148157,21.88 30.228157,19.86 C30.308157,17.84 31.648157,17.86 33.138157,17.86 C40.138157,17.86 47.138157,17.86 54.138157,17.86 C55.778157,17.86 56.458157,17.49 56.388157,15.72 C56.258157,12.46 56.308157,9.19 56.388157,5.92 C56.388157,4.57 55.978157,4.03 54.568157,4.04 C41.428157,4.04 28.288157,4.04 15.148157,4.04 C13.868157,4.04 13.408157,4.52 13.428157,5.79 C13.488157,8.52 13.428157,11.25 13.428157,13.99 C13.428157,15.35 13.028157,16.47 11.428157,16.46 C9.82815696,16.45 9.42815696,15.3 9.42815696,13.96 C9.42815696,10.77 9.36815696,7.58 9.42815696,4.39 C9.48815696,1.2 10.788157,0.01 13.968157,0 C20.918157,0.01 27.908157,0.03 34.898157,0.03 Z" id="Path"></path></g></g></svg> 